#!OML:ASF I:\Actors\actors\Patient Classification 2\Patient 1\Session 1\actor1.ASF
:FULLY-SPECIFIED
:DEGREES
249
root -0.670003 18.758 5.69823 2.89806 -2.67099 -5.46999
lowerback 8.0138 3.01471 0.438669
upperback 2.59312 4.00722 -1.14903
thorax -1.68915 1.99981 -1.79885
lowerneck -10.5859 -4.61156 -2.93717
upperneck 33.8559 -8.8284 8.18055
head 13.7742 -3.19599 2.46965
rclavicle 1.19271e-015 -1.51076e-014
rhumerus 40.3407 45.0807 -3.32644
rradius 92.5487
rwrist 20.3077
rhand 9.29801 -6.66562
rfingers 7.12502
rthumb 34.4602 -33.346
lclavicle 1.19271e-015 -1.51076e-014
lhumerus -1.56139 -44.962 66.2743
lradius 102.616
lwrist -2.18069
lhand 28.9614 -9.12628
lfingers 7.12502
lthumb 52.7708 10.5101
rfemur 0 0 0
rtibia 0
rfoot 0 0
rtoes 0
lfemur -7.14077 -4.93535 -8.31081
ltibia 23.8025
lfoot -22.6682 13.7062
ltoes -55.6911
250
root -0.676598 18.759 5.69413 2.93333 -2.52254 -5.4577
lowerback 8.01329 3.0372 0.485724
upperback 2.61461 4.04088 -1.15246
thorax -1.66204 2.01706 -1.8307
lowerneck -10.616 -4.69267 -3.09249
upperneck 33.8021 -8.95209 8.32383
head 13.7845 -3.25106 2.53386
rclavicle 5.9039e-014 -3.65764e-014
rhumerus 40.6007 45.3914 -2.7729
rradius 92.8124
rwrist 20.1394
rhand 9.33343 -6.51897
rfingers 7.12502
rthumb 34.4938 -33.1917
lclavicle 5.9039e-014 -3.65764e-014
lhumerus -1.28284 -45.1406 66.1253
lradius 102.589
lwrist -2.08095
lhand 28.9561 -8.95317
lfingers 7.12502
lthumb 52.7661 10.6862
rfemur 0 0 0
rtibia 0
rfoot 0 0
rtoes 0
lfemur -7.24478 -4.95174 -8.27913
ltibia 23.7987
lfoot -22.6126 13.613
ltoes -55.7367
251
root -0.682989 18.7598 5.68999 2.93745 -2.3602 -5.43361
lowerback 8.05147 3.04459 0.516882
upperback 2.6652 4.05354 -1.1413
thorax -1.6291 2.02395 -1.8381
lowerneck -10.6376 -4.75109 -3.25963
upperneck 33.6508 -9.03062 8.47207
head 13.7466 -3.29027 2.60658
rclavicle -3.4191e-014 5.56597e-015
rhumerus 40.7034 45.4295 -2.41637
rradius 93.0824
rwrist 19.7898
rhand 9.74814 -5.46674
rfingers 7.12502
rthumb 34.8874 -32.049
lclavicle -3.4191e-014 5.56597e-015
lhumerus -0.961534 -45.2885 65.9496
lradius 102.565
lwrist -1.95773
lhand 28.8966 -8.68149
lfingers 7.12502
lthumb 52.7122 10.9914
rfemur 0 0 0
rtibia 0
rfoot 0 0
rtoes 0
lfemur -7.32426 -4.99477 -8.26371
ltibia 23.8059
lfoot -22.5735 13.5037
ltoes -55.6854
252
root -0.689285 18.7599 5.68424 2.91849 -2.2159 -5.47611
lowerback 8.14549 3.02686 0.571466
upperback 2.78394 4.03582 -1.07983
thorax -1.55972 2.01617 -1.805
lowerneck -10.8587 -4.77205 -3.33621
upperneck 33.5048 -9.02958 8.48273
head 13.735 -3.29425 2.6158
rclavicle 7.55382e-014 -2.70347e-014
rhumerus 40.8598 45.1925 -2.03085
rradius 93.462
rwrist 19.4225
rhand 10.018 -5.10647
rfingers 7.12502
rthumb 35.1434 -31.6289
lclavicle 7.55382e-014 -2.70347e-014
lhumerus -0.452175 -45.2919 65.586
lradius 102.507
lwrist -1.84264
lhand 28.7672 -8.71474
lfingers 7.12502
lthumb 52.5953 11.0306
rfemur 0 0 0
rtibia 0
rfoot 0 0
rtoes 0
lfemur -7.38112 -4.98852 -8.17305
ltibia 23.8144
lfoot -22.4773 13.3808
ltoes -55.6649
253
root -0.694851 18.7596 5.67878 2.89823 -2.1136 -5.52648
lowerback 8.26879 3.0014 0.597545
upperback 2.92345 4.00578 -1.00506
thorax -1.48833 2.00218 -1.74227
lowerneck -11.2256 -4.75751 -3.35742
upperneck 33.4305 -8.9793 8.44017
head 13.7775 -3.27017 2.60037
rclavicle 1.07344e-014 7.15625e-015
rhumerus 40.9217 44.7393 -1.81513
rradius 93.904
rwrist 19.0347
rhand 10.0369 -5.21108
rfingers 7.12502
rthumb 35.1614 -31.7293
lclavicle 1.07344e-014 7.15625e-015
lhumerus 0.163106 -45.193 65.0954
lradius 102.436
lwrist -1.74758
lhand 28.7098 -8.9555
lfingers 7.12502
lthumb 52.5434 10.8218
rfemur 0 0 0
rtibia 0
rfoot 0 0
rtoes 0
lfemur -7.41358 -5.02753 -8.08664
ltibia 23.8237
lfoot -22.4261 13.3223
ltoes -55.6451
254
root -0.69966 18.7602 5.67569 2.91381 -2.00496 -5.50197
lowerback 8.32383 2.99098 0.580639
upperback 2.99736 3.9914 -0.971687
thorax -1.44641 1.99547 -1.69786
lowerneck -11.4084 -4.73721 -3.37024
upperneck 33.359 -8.93031 8.42152
head 13.7814 -3.24826 2.59713
rclavicle 2.16675e-014 -7.95139e-015
rhumerus 40.6655 44.2543 -1.942
rradius 94.3129
rwrist 18.7634
rhand 9.58166 -5.31904
rfingers 7.12502
rthumb 34.7295 -31.9379
lclavicle 2.16675e-014 -7.95139e-015
lhumerus 0.602713 -45.1789 64.7178
lradius 102.422
lwrist -1.63484
lhand 28.7927 -8.90107
lfingers 7.12502
lthumb 52.6183 10.83
rfemur 0 0 0
rtibia 0
rfoot 0 0
rtoes 0
lfemur -7.47364 -5.08512 -8.08826
ltibia 23.8289
lfoot -22.3921 13.2776
ltoes -55.6245
255
root -0.704661 18.7613 5.67358 2.94588 -1.88378 -5.47224
lowerback 8.36523 2.98554 0.568094
upperback 2.9956 3.98398 -0.932501
thorax -1.475 1.99127 -1.65253
lowerneck -11.3954 -4.71922 -3.34838
upperneck 33.3052 -8.86771 8.32401
head 13.7413 -3.2315 2.56275
rclavicle -5.56597e-014 1.59028e-015
rhumerus 40.3601 43.8158 -2.12916
rradius 94.6613
rwrist 18.4209
rhand 9.23787 -5.31329
rfingers 7.12502
rthumb 34.4031 -32.0066
lclavicle -5.56597e-014 1.59028e-015
lhumerus 0.799584 -45.2218 64.5313
lradius 102.441
lwrist -1.4675
lhand 28.976 -8.60912
lfingers 7.12502
lthumb 52.784 11.019
rfemur 0 0 0
rtibia 0
rfoot 0 0
rtoes 0
lfemur -7.55389 -5.09031 -8.08766
ltibia 23.824
lfoot -22.3065 13.2091
ltoes -55.6683
256
root -0.709801 18.7617 5.67181 2.93589 -1.7902 -5.47492
lowerback 8.50578 2.97842 0.568697
upperback 2.94195 3.97557 -0.872538
thorax -1.61242 1.98531 -1.60094
lowerneck -11.3356 -4.69811 -3.31355
upperneck 33.341 -8.79322 8.168
head 13.7254 -3.2145 2.50778
rclavicle -5.56597e-015 2.14687e-014
rhumerus 40.1883 43.5347 -2.24376
rradius 94.8997
rwrist 17.8418
rhand 9.5256 -5.10104
rfingers 7.12502
rthumb 34.6763 -31.7321
lclavicle -5.56597e-015 2.14687e-014
lhumerus 0.80638 -45.2566 64.4785
lradius 102.457
lwrist -1.31425
lhand 29.1335 -8.41543
lfingers 7.12502
lthumb 52.9263 11.1235
rfemur 0 0 0
rtibia 0
rfoot 0 0
rtoes 0
lfemur -7.57474 -5.11241 -8.0566
ltibia 23.8154
lfoot -22.2541 13.1613
ltoes -55.702
257
root -0.714541 18.7624 5.67146 2.94513 -1.73428 -5.50433
lowerback 8.64112 2.98505 0.634719
upperback 2.84835 3.99031 -0.843497
thorax -1.78083 1.99073 -1.62085
lowerneck -11.2809 -4.68699 -3.36978
upperneck 33.4725 -8.78406 8.19615
head 13.7757 -3.21164 2.53531
rclavicle -2.74323e-014 0
rhumerus 40.0018 43.4649 -2.38418
rradius 94.9784
rwrist 17.1901
rhand 9.52971 -4.88126
rfingers 7.12502
rthumb 34.6802 -31.5114
lclavicle -2.74323e-014 0
lhumerus 0.782051 -45.3474 64.4523
lradius 102.457
lwrist -1.25419
lhand 29.1965 -8.39573
lfingers 7.12502
lthumb 52.9831 11.1073
rfemur 0 0 0
rtibia 0
rfoot 0 0
rtoes 0
lfemur -7.60019 -5.15335 -8.00307
ltibia 23.8114
lfoot -22.2168 13.1839
ltoes -55.7781
258
root -0.71875 18.7634 5.67235 3.00323 -1.69246 -5.54783
lowerback 8.81807 3.00238 0.816462
upperback 2.67472 4.02786 -0.884384
thorax -2.04107 2.00626 -1.78499
lowerneck -11.1693 -4.71726 -3.51795
upperneck 33.5933 -8.88696 8.43815
head 13.8374 -3.24449 2.64903
rclavicle -7.61345e-014 1.51076e-014
rhumerus 39.8104 43.6292 -2.43517
rradius 95.0127
rwrist 16.6747
rhand 9.1646 -4.7291
rfingers 7.12502
rthumb 34.3336 -31.4382
lclavicle -7.61345e-014 1.51076e-014
lhumerus 0.729355 -45.5452 64.4306
lradius 102.438
lwrist -1.22389
lhand 29.2184 -8.46253
lfingers 7.12502
lthumb 53.0029 11.028
rfemur 0 0 0
rtibia 0
rfoot 0 0
rtoes 0
lfemur -7.675 -5.17939 -7.93067
ltibia 23.8106
lfoot -22.1768 13.2023
ltoes -55.845
259
root -0.722232 18.7641 5.67366 3.05904 -1.63285 -5.55833
lowerback 8.92937 2.98638 0.967592
upperback 2.54427 4.01918 -0.926622
thorax -2.22411 1.99917 -1.92348
lowerneck -11.0663 -4.74492 -3.56956
upperneck 33.6116 -8.92849 8.47174
head 13.8311 -3.26748 2.66789
rclavicle 4.09496e-014 1.59028e-015
rhumerus 39.9937 43.8669 -2.05189
rradius 95.0946
rwrist 16.1906
rhand 9.28271 -4.80539
rfingers 7.12502
rthumb 34.4457 -31.4891
lclavicle 4.09496e-014 1.59028e-015
lhumerus 0.675092 -45.6226 64.4269
lradius 102.399
lwrist -1.23793
lhand 29.1252 -8.49304
lfingers 7.12502
lthumb 52.9188 11.0506
rfemur 0 0 0
rtibia 0
rfoot 0 0
rtoes 0
lfemur -7.75509 -5.15528 -7.89079
ltibia 23.8061
lfoot -22.1264 13.1206
ltoes -55.838
260
root -0.72533 18.7644 5.67415 3.06636 -1.57037 -5.55447
lowerback 8.81338 2.93927 0.975594
upperback 2.60486 3.95825 -0.883561
thorax -2.10236 1.97061 -1.86811
lowerneck -11.1297 -4.73791 -3.50706
upperneck 33.5804 -8.85161 8.24411
head 13.806 -3.25364 2.57441
rclavicle -6.81831e-014 3.18055e-015
rhumerus 40.554 43.9535 -1.25795
rradius 95.1545
rwrist 15.5649
rhand 9.92262 -4.8866
rfingers 7.12502
rthumb 35.0529 -31.4303
lclavicle -6.81831e-014 3.18055e-015
lhumerus 0.80251 -45.4207 64.4112
lradius 102.303
lwrist -1.29072
lhand 28.8574 -8.37093
lfingers 7.12502
lthumb 52.6768 11.3239
rfemur 0 0 0
rtibia 0
rfoot 0 0
rtoes 0
lfemur -7.77445 -5.18976 -7.878
ltibia 23.7926
lfoot -22.1181 13.0773
ltoes -55.7866
261
root -0.728771 18.7645 5.67358 3.01581 -1.51218 -5.53706
lowerback 8.76823 2.91216 0.960283
upperback 2.69208 3.92151 -0.855733
thorax -1.99167 1.95404 -1.82134
lowerneck -11.2218 -4.75263 -3.50029
upperneck 33.5286 -8.85557 8.20208
head 13.8006 -3.2583 2.55218
rclavicle 5.96354e-014 -5.56597e-015
rhumerus 40.8278 44.0228 -0.735265
rradius 95.1811
rwrist 14.7807
rhand 10.7441 -4.60742
rfingers 7.12502
rthumb 35.8317 -30.9651
lclavicle 5.96354e-014 -5.56597e-015
lhumerus 0.987791 -45.2331 64.3953
lradius 102.218
lwrist -1.31729
lhand 28.5114 -8.18613
lfingers 7.12502
lthumb 52.3638 11.7009
rfemur 0 0 0
rtibia 0
rfoot 0 0
rtoes 0
lfemur -7.72056 -5.30976 -7.89092
ltibia 23.7703
lfoot -22.1457 13.1136
ltoes -55.7439
